<mxfile host="Electron" modified="2023-06-03T09:40:37.511Z" agent="Mozilla/5.0 (X11; Linux x86_64) AppleWebKit/537.36 (KHTML, like Gecko) draw.io/21.2.8 Chrome/112.0.5615.165 Electron/24.2.0 Safari/537.36" etag="D2bfRODr4klDux4fzLOp" version="21.2.8" type="device" pages="3">
  <diagram id="QJjx0-fPxzvcmYibJWj1" name="pose">
    <mxGraphModel dx="1416" dy="899" grid="1" gridSize="10" guides="1" tooltips="1" connect="1" arrows="1" fold="1" page="1" pageScale="1" pageWidth="827" pageHeight="583" math="0" shadow="0">
      <root>
        <mxCell id="0" />
        <mxCell id="1" parent="0" />
        <mxCell id="82nHU04upY9m6G3ZKpld-7" value="" style="shape=cube;whiteSpace=wrap;html=1;boundedLbl=1;backgroundOutline=1;darkOpacity=0.2;darkOpacity2=0.2;fontSize=16;size=44.15;flipH=1;fillColor=#fad7ac;shadow=0;strokeColor=#b46504;" parent="1" vertex="1">
          <mxGeometry x="49" y="246" width="205" height="130" as="geometry" />
        </mxCell>
        <mxCell id="4f-DMQIj-ya-iA7LCkDa-23" value="" style="shape=cube;whiteSpace=wrap;html=1;boundedLbl=1;backgroundOutline=1;darkOpacity=0.05;darkOpacity2=0.1;size=7;direction=east;flipH=1;fillColor=#ffe6cc;strokeColor=#d79b00;" parent="1" vertex="1">
          <mxGeometry x="599" y="178.94" width="30" height="20" as="geometry" />
        </mxCell>
        <mxCell id="4f-DMQIj-ya-iA7LCkDa-24" value="" style="shape=cube;whiteSpace=wrap;html=1;boundedLbl=1;backgroundOutline=1;darkOpacity=0.05;darkOpacity2=0.1;size=7;direction=east;flipH=1;fillColor=#f8cecc;strokeColor=#b85450;" parent="1" vertex="1">
          <mxGeometry x="599" y="208.94" width="30" height="20" as="geometry" />
        </mxCell>
        <mxCell id="4f-DMQIj-ya-iA7LCkDa-50" value="&lt;font style=&quot;font-size: 13px;&quot;&gt;Convolutional + ReLU&lt;/font&gt;" style="text;html=1;strokeColor=none;fillColor=none;align=left;verticalAlign=middle;whiteSpace=wrap;rounded=0;fontStyle=1" parent="1" vertex="1">
          <mxGeometry x="640" y="177" width="138" height="23.88" as="geometry" />
        </mxCell>
        <mxCell id="4f-DMQIj-ya-iA7LCkDa-51" value="&lt;font style=&quot;font-size: 13px;&quot;&gt;Max Pooling&lt;/font&gt;" style="text;html=1;strokeColor=none;fillColor=none;align=left;verticalAlign=middle;whiteSpace=wrap;rounded=0;fontStyle=1" parent="1" vertex="1">
          <mxGeometry x="640" y="207" width="138" height="23.88" as="geometry" />
        </mxCell>
        <mxCell id="5F0MJGyGuppCD4U95YsP-1" value="" style="shape=cube;whiteSpace=wrap;html=1;boundedLbl=1;backgroundOutline=1;darkOpacity=0.2;darkOpacity2=0.2;fontSize=16;size=44.15;flipH=1;fillColor=#fad7ac;strokeColor=#b46504;fillOpacity=100;strokeOpacity=100;" parent="1" vertex="1">
          <mxGeometry x="219" y="246" width="205" height="130" as="geometry" />
        </mxCell>
        <mxCell id="5F0MJGyGuppCD4U95YsP-2" value="&lt;font style=&quot;font-size: 15px;&quot;&gt;17 x 18 x 32&lt;/font&gt;" style="text;html=1;strokeColor=none;fillColor=none;align=center;verticalAlign=middle;whiteSpace=wrap;rounded=0;" parent="1" vertex="1">
          <mxGeometry x="79" y="376" width="99" height="30" as="geometry" />
        </mxCell>
        <mxCell id="82nHU04upY9m6G3ZKpld-1" value="&lt;font style=&quot;font-size: 15px;&quot;&gt;18 x 19 x 32&lt;/font&gt;" style="text;html=1;strokeColor=none;fillColor=none;align=center;verticalAlign=middle;whiteSpace=wrap;rounded=0;" parent="1" vertex="1">
          <mxGeometry x="249" y="376" width="99" height="30" as="geometry" />
        </mxCell>
        <mxCell id="82nHU04upY9m6G3ZKpld-2" value="" style="shape=cube;whiteSpace=wrap;html=1;boundedLbl=1;backgroundOutline=1;darkOpacity=0.2;darkOpacity2=0.2;size=22.47;direction=east;flipH=1;fillColor=#f8cecc;strokeColor=#b85450;" parent="1" vertex="1">
          <mxGeometry x="395" y="276.25" width="182.5" height="67.5" as="geometry" />
        </mxCell>
        <mxCell id="82nHU04upY9m6G3ZKpld-4" value="" style="shape=cube;whiteSpace=wrap;html=1;boundedLbl=1;backgroundOutline=1;darkOpacity=0.2;darkOpacity2=0.2;size=5;direction=east;flipH=1;fillColor=#bac8d3;strokeColor=#23445d;" parent="1" vertex="1">
          <mxGeometry x="568.5" y="300.25" width="200" height="15" as="geometry" />
        </mxCell>
        <mxCell id="Ad0LmVxjXW1FklpAABQL-1" style="edgeStyle=none;curved=1;rounded=0;orthogonalLoop=1;jettySize=auto;html=1;exitX=0.5;exitY=1;exitDx=0;exitDy=0;fontFamily=Helvetica;fontSize=16;fontColor=default;startSize=8;endSize=8;" parent="1" source="5F0MJGyGuppCD4U95YsP-2" target="5F0MJGyGuppCD4U95YsP-2" edge="1">
          <mxGeometry relative="1" as="geometry" />
        </mxCell>
        <mxCell id="Ad0LmVxjXW1FklpAABQL-2" value="" style="shape=cube;whiteSpace=wrap;html=1;boundedLbl=1;backgroundOutline=1;darkOpacity=0.05;darkOpacity2=0.1;size=7;direction=east;flipH=1;fillColor=#bac8d3;strokeColor=#23445d;" parent="1" vertex="1">
          <mxGeometry x="599" y="239.06" width="30" height="20" as="geometry" />
        </mxCell>
        <mxCell id="Ad0LmVxjXW1FklpAABQL-3" value="&lt;font style=&quot;font-size: 13px;&quot;&gt;Flatten&lt;/font&gt;" style="text;html=1;strokeColor=none;fillColor=none;align=left;verticalAlign=middle;whiteSpace=wrap;rounded=0;fontStyle=1" parent="1" vertex="1">
          <mxGeometry x="640" y="237.12" width="138" height="23.88" as="geometry" />
        </mxCell>
        <mxCell id="Ad0LmVxjXW1FklpAABQL-4" value="&lt;font style=&quot;font-size: 15px;&quot;&gt;9 x 9 x 32&lt;/font&gt;" style="text;html=1;strokeColor=none;fillColor=none;align=center;verticalAlign=middle;whiteSpace=wrap;rounded=0;" parent="1" vertex="1">
          <mxGeometry x="436.75" y="343.75" width="99" height="30" as="geometry" />
        </mxCell>
        <mxCell id="Ad0LmVxjXW1FklpAABQL-5" value="&lt;font style=&quot;font-size: 15px;&quot;&gt;1 x 1 x 2592&lt;/font&gt;" style="text;html=1;strokeColor=none;fillColor=none;align=center;verticalAlign=middle;whiteSpace=wrap;rounded=0;" parent="1" vertex="1">
          <mxGeometry x="619" y="315.25" width="99" height="30" as="geometry" />
        </mxCell>
      </root>
    </mxGraphModel>
  </diagram>
  <diagram name="face" id="q2WLm4WrLEOjrpEw0R1z">
    <mxGraphModel dx="2023" dy="1284" grid="1" gridSize="10" guides="1" tooltips="1" connect="1" arrows="1" fold="1" page="1" pageScale="1" pageWidth="827" pageHeight="583" math="0" shadow="0">
      <root>
        <mxCell id="bVAwS-9SD5gkBKZOe2mJ-0" />
        <mxCell id="bVAwS-9SD5gkBKZOe2mJ-1" parent="bVAwS-9SD5gkBKZOe2mJ-0" />
        <mxCell id="bVAwS-9SD5gkBKZOe2mJ-2" value="" style="shape=cube;whiteSpace=wrap;html=1;boundedLbl=1;backgroundOutline=1;darkOpacity=0.2;darkOpacity2=0.2;fontSize=16;size=60;flipH=1;fillColor=#fad7ac;shadow=0;strokeColor=#b46504;" parent="bVAwS-9SD5gkBKZOe2mJ-1" vertex="1">
          <mxGeometry x="280" y="216" width="188" height="180" as="geometry" />
        </mxCell>
        <mxCell id="oh97CIymsACHAIfqfVX8-1" value="" style="shape=cube;whiteSpace=wrap;html=1;boundedLbl=1;backgroundOutline=1;darkOpacity=0.2;darkOpacity2=0.2;fontSize=16;size=60;flipH=1;fillColor=#fad7ac;shadow=0;strokeColor=#b46504;" parent="bVAwS-9SD5gkBKZOe2mJ-1" vertex="1">
          <mxGeometry x="419" y="215.5" width="188" height="180" as="geometry" />
        </mxCell>
        <mxCell id="bVAwS-9SD5gkBKZOe2mJ-3" value="" style="shape=cube;whiteSpace=wrap;html=1;boundedLbl=1;backgroundOutline=1;darkOpacity=0.05;darkOpacity2=0.1;size=7;direction=east;flipH=1;fillColor=#ffe6cc;strokeColor=#d79b00;" parent="bVAwS-9SD5gkBKZOe2mJ-1" vertex="1">
          <mxGeometry x="1231.5" y="157.94" width="30" height="20" as="geometry" />
        </mxCell>
        <mxCell id="bVAwS-9SD5gkBKZOe2mJ-4" value="" style="shape=cube;whiteSpace=wrap;html=1;boundedLbl=1;backgroundOutline=1;darkOpacity=0.05;darkOpacity2=0.1;size=7;direction=east;flipH=1;fillColor=#f8cecc;strokeColor=#b85450;" parent="bVAwS-9SD5gkBKZOe2mJ-1" vertex="1">
          <mxGeometry x="1231.5" y="187.94" width="30" height="20" as="geometry" />
        </mxCell>
        <mxCell id="bVAwS-9SD5gkBKZOe2mJ-7" value="&lt;font style=&quot;font-size: 13px;&quot;&gt;Convolutional + ReLU&lt;/font&gt;" style="text;html=1;strokeColor=none;fillColor=none;align=left;verticalAlign=middle;whiteSpace=wrap;rounded=0;fontStyle=1" parent="bVAwS-9SD5gkBKZOe2mJ-1" vertex="1">
          <mxGeometry x="1272.5" y="156" width="138" height="23.88" as="geometry" />
        </mxCell>
        <mxCell id="bVAwS-9SD5gkBKZOe2mJ-8" value="&lt;font style=&quot;font-size: 13px;&quot;&gt;Max Pooling&lt;/font&gt;" style="text;html=1;strokeColor=none;fillColor=none;align=left;verticalAlign=middle;whiteSpace=wrap;rounded=0;fontStyle=1" parent="bVAwS-9SD5gkBKZOe2mJ-1" vertex="1">
          <mxGeometry x="1272.5" y="186" width="138" height="23.88" as="geometry" />
        </mxCell>
        <mxCell id="bVAwS-9SD5gkBKZOe2mJ-10" value="&lt;font style=&quot;font-size: 15px;&quot;&gt;30 x 30 x 32&lt;/font&gt;" style="text;html=1;strokeColor=none;fillColor=none;align=center;verticalAlign=middle;whiteSpace=wrap;rounded=0;" parent="bVAwS-9SD5gkBKZOe2mJ-1" vertex="1">
          <mxGeometry x="300" y="396" width="99" height="30" as="geometry" />
        </mxCell>
        <mxCell id="bVAwS-9SD5gkBKZOe2mJ-11" value="&lt;font style=&quot;font-size: 15px;&quot;&gt;30 x 30 x 32&lt;/font&gt;" style="text;html=1;strokeColor=none;fillColor=none;align=center;verticalAlign=middle;whiteSpace=wrap;rounded=0;" parent="bVAwS-9SD5gkBKZOe2mJ-1" vertex="1">
          <mxGeometry x="430" y="396" width="99" height="30" as="geometry" />
        </mxCell>
        <mxCell id="bVAwS-9SD5gkBKZOe2mJ-12" value="" style="shape=cube;whiteSpace=wrap;html=1;boundedLbl=1;backgroundOutline=1;darkOpacity=0.2;darkOpacity2=0.2;size=30;direction=east;flipH=1;fillColor=#f8cecc;strokeColor=#b85450;" parent="bVAwS-9SD5gkBKZOe2mJ-1" vertex="1">
          <mxGeometry x="563" y="261" width="158" height="90" as="geometry" />
        </mxCell>
        <mxCell id="bVAwS-9SD5gkBKZOe2mJ-14" style="edgeStyle=none;curved=1;rounded=0;orthogonalLoop=1;jettySize=auto;html=1;exitX=0.5;exitY=1;exitDx=0;exitDy=0;fontFamily=Helvetica;fontSize=16;fontColor=default;startSize=8;endSize=8;" parent="bVAwS-9SD5gkBKZOe2mJ-1" source="bVAwS-9SD5gkBKZOe2mJ-10" target="bVAwS-9SD5gkBKZOe2mJ-10" edge="1">
          <mxGeometry relative="1" as="geometry" />
        </mxCell>
        <mxCell id="bVAwS-9SD5gkBKZOe2mJ-17" value="&lt;font style=&quot;font-size: 15px;&quot;&gt;15 x 15 x 32&lt;/font&gt;" style="text;html=1;strokeColor=none;fillColor=none;align=center;verticalAlign=middle;whiteSpace=wrap;rounded=0;" parent="bVAwS-9SD5gkBKZOe2mJ-1" vertex="1">
          <mxGeometry x="580" y="350.5" width="99" height="30" as="geometry" />
        </mxCell>
        <mxCell id="bVAwS-9SD5gkBKZOe2mJ-18" value="&lt;font style=&quot;font-size: 15px;&quot;&gt;1 x 1 x 512&lt;/font&gt;" style="text;html=1;strokeColor=none;fillColor=none;align=center;verticalAlign=middle;whiteSpace=wrap;rounded=0;" parent="bVAwS-9SD5gkBKZOe2mJ-1" vertex="1">
          <mxGeometry x="1170" y="313" width="99" height="30" as="geometry" />
        </mxCell>
        <mxCell id="oh97CIymsACHAIfqfVX8-2" value="" style="shape=cube;whiteSpace=wrap;html=1;boundedLbl=1;backgroundOutline=1;darkOpacity=0.2;darkOpacity2=0.2;size=30;direction=east;flipH=1;fillColor=#fad7ac;strokeColor=#b46504;" parent="bVAwS-9SD5gkBKZOe2mJ-1" vertex="1">
          <mxGeometry x="700" y="261" width="158" height="90" as="geometry" />
        </mxCell>
        <mxCell id="oh97CIymsACHAIfqfVX8-3" value="" style="shape=cube;whiteSpace=wrap;html=1;boundedLbl=1;backgroundOutline=1;darkOpacity=0.2;darkOpacity2=0.2;size=30;direction=east;flipH=1;fillColor=#fad7ac;strokeColor=#b46504;" parent="bVAwS-9SD5gkBKZOe2mJ-1" vertex="1">
          <mxGeometry x="838" y="260.5" width="158" height="90" as="geometry" />
        </mxCell>
        <mxCell id="oh97CIymsACHAIfqfVX8-4" value="" style="shape=cube;whiteSpace=wrap;html=1;boundedLbl=1;backgroundOutline=1;darkOpacity=0.2;darkOpacity2=0.2;size=14;direction=east;flipH=1;fillColor=#f8cecc;strokeColor=#b85450;" parent="bVAwS-9SD5gkBKZOe2mJ-1" vertex="1">
          <mxGeometry x="975" y="284.5" width="142" height="42" as="geometry" />
        </mxCell>
        <mxCell id="GDVcJAiibsshi_ylWbLN-0" value="" style="shape=cube;whiteSpace=wrap;html=1;boundedLbl=1;backgroundOutline=1;darkOpacity=0.05;darkOpacity2=0.1;size=7;direction=east;flipH=1;fillColor=#dae8fc;strokeColor=#6c8ebf;" parent="bVAwS-9SD5gkBKZOe2mJ-1" vertex="1">
          <mxGeometry x="1231.5" y="218.76" width="30" height="20" as="geometry" />
        </mxCell>
        <mxCell id="GDVcJAiibsshi_ylWbLN-2" value="&lt;font style=&quot;font-size: 13px;&quot;&gt;Fully connected + ReLU&lt;/font&gt;" style="text;html=1;strokeColor=none;fillColor=none;align=left;verticalAlign=middle;whiteSpace=wrap;rounded=0;fontStyle=1" parent="bVAwS-9SD5gkBKZOe2mJ-1" vertex="1">
          <mxGeometry x="1272.5" y="216.82" width="157.5" height="23.88" as="geometry" />
        </mxCell>
        <mxCell id="SXMIMjVnI2sJhpPjONrM-0" value="&lt;font style=&quot;font-size: 15px;&quot;&gt;1 x 1 x 64&lt;/font&gt;" style="text;html=1;strokeColor=none;fillColor=none;align=center;verticalAlign=middle;whiteSpace=wrap;rounded=0;" parent="bVAwS-9SD5gkBKZOe2mJ-1" vertex="1">
          <mxGeometry x="1311.5" y="313" width="99" height="30" as="geometry" />
        </mxCell>
        <mxCell id="LuoUua0ltgMZFsbZSXds-2" value="&lt;font style=&quot;font-size: 15px;&quot;&gt;15 x 15 x 32&lt;/font&gt;" style="text;html=1;strokeColor=none;fillColor=none;align=center;verticalAlign=middle;whiteSpace=wrap;rounded=0;" parent="bVAwS-9SD5gkBKZOe2mJ-1" vertex="1">
          <mxGeometry x="715.5" y="350.5" width="99" height="30" as="geometry" />
        </mxCell>
        <mxCell id="LuoUua0ltgMZFsbZSXds-3" value="&lt;font style=&quot;font-size: 15px;&quot;&gt;15 x 15 x 32&lt;/font&gt;" style="text;html=1;strokeColor=none;fillColor=none;align=center;verticalAlign=middle;whiteSpace=wrap;rounded=0;" parent="bVAwS-9SD5gkBKZOe2mJ-1" vertex="1">
          <mxGeometry x="850" y="351" width="99" height="30" as="geometry" />
        </mxCell>
        <mxCell id="bVAwS-9SD5gkBKZOe2mJ-13" value="" style="shape=cube;whiteSpace=wrap;html=1;boundedLbl=1;backgroundOutline=1;darkOpacity=0.2;darkOpacity2=0.2;size=5;direction=east;flipH=1;fillColor=#dae8fc;strokeColor=#6c8ebf;" parent="bVAwS-9SD5gkBKZOe2mJ-1" vertex="1">
          <mxGeometry x="1108" y="297.5" width="240" height="15" as="geometry" />
        </mxCell>
        <mxCell id="hDAebM9zXOgvfxH_e_Es-0" value="&lt;font style=&quot;font-size: 15px;&quot;&gt;7 x 7 x 32&lt;/font&gt;" style="text;html=1;strokeColor=none;fillColor=none;align=center;verticalAlign=middle;whiteSpace=wrap;rounded=0;" parent="bVAwS-9SD5gkBKZOe2mJ-1" vertex="1">
          <mxGeometry x="988" y="326.5" width="99" height="30" as="geometry" />
        </mxCell>
        <mxCell id="GDVcJAiibsshi_ylWbLN-4" value="" style="shape=cube;whiteSpace=wrap;html=1;boundedLbl=1;backgroundOutline=1;darkOpacity=0.2;darkOpacity2=0.2;size=5;direction=east;flipH=1;fillColor=#dae8fc;strokeColor=#6c8ebf;" parent="bVAwS-9SD5gkBKZOe2mJ-1" vertex="1">
          <mxGeometry x="1347" y="297" width="30" height="15" as="geometry" />
        </mxCell>
      </root>
    </mxGraphModel>
  </diagram>
  <diagram name="fusion" id="1SlOSoOZ_nR3ZdTtckRl">
    <mxGraphModel dx="1416" dy="899" grid="1" gridSize="10" guides="1" tooltips="1" connect="1" arrows="1" fold="1" page="1" pageScale="1" pageWidth="827" pageHeight="583" math="0" shadow="0">
      <root>
        <mxCell id="QK2pbx6oKxcqNwF5JGfP-0" />
        <mxCell id="QK2pbx6oKxcqNwF5JGfP-1" parent="QK2pbx6oKxcqNwF5JGfP-0" />
        <mxCell id="QK2pbx6oKxcqNwF5JGfP-16" value="" style="shape=cube;whiteSpace=wrap;html=1;boundedLbl=1;backgroundOutline=1;darkOpacity=0.2;darkOpacity2=0.2;size=10;direction=east;flipH=1;fillColor=#dae8fc;strokeColor=#6c8ebf;" parent="QK2pbx6oKxcqNwF5JGfP-1" vertex="1">
          <mxGeometry x="239.5" y="154" width="30" height="256" as="geometry" />
        </mxCell>
        <mxCell id="QK2pbx6oKxcqNwF5JGfP-17" value="" style="shape=cube;whiteSpace=wrap;html=1;boundedLbl=1;backgroundOutline=1;darkOpacity=0.05;darkOpacity2=0.1;size=7;direction=east;flipH=1;fillColor=#dae8fc;strokeColor=#6c8ebf;" parent="QK2pbx6oKxcqNwF5JGfP-1" vertex="1">
          <mxGeometry x="441.5" y="147.88" width="30" height="20" as="geometry" />
        </mxCell>
        <mxCell id="QK2pbx6oKxcqNwF5JGfP-18" value="Fully connected + ReLU" style="text;html=1;strokeColor=none;fillColor=none;align=left;verticalAlign=middle;whiteSpace=wrap;rounded=0;fontStyle=1" parent="QK2pbx6oKxcqNwF5JGfP-1" vertex="1">
          <mxGeometry x="482.5" y="144" width="139" height="23.88" as="geometry" />
        </mxCell>
        <mxCell id="QK2pbx6oKxcqNwF5JGfP-23" value="1 x 1 x 1024" style="text;html=1;strokeColor=none;fillColor=none;align=center;verticalAlign=middle;whiteSpace=wrap;rounded=0;" parent="QK2pbx6oKxcqNwF5JGfP-1" vertex="1">
          <mxGeometry x="205" y="410" width="99" height="30" as="geometry" />
        </mxCell>
        <mxCell id="jLijkt9ATGrM85FAeO1t-6" value="1 x 1 x 512" style="text;html=1;strokeColor=none;fillColor=none;align=center;verticalAlign=middle;whiteSpace=wrap;rounded=0;" parent="QK2pbx6oKxcqNwF5JGfP-1" vertex="1">
          <mxGeometry x="285" y="378" width="99" height="30" as="geometry" />
        </mxCell>
        <mxCell id="jLijkt9ATGrM85FAeO1t-7" value="1 x 1 x 256" style="text;html=1;strokeColor=none;fillColor=none;align=center;verticalAlign=middle;whiteSpace=wrap;rounded=0;" parent="QK2pbx6oKxcqNwF5JGfP-1" vertex="1">
          <mxGeometry x="365" y="354" width="99" height="30" as="geometry" />
        </mxCell>
        <mxCell id="jLijkt9ATGrM85FAeO1t-8" value="1 x 1 x 64" style="text;html=1;strokeColor=none;fillColor=none;align=center;verticalAlign=middle;whiteSpace=wrap;rounded=0;" parent="QK2pbx6oKxcqNwF5JGfP-1" vertex="1">
          <mxGeometry x="440.5" y="336" width="99" height="30" as="geometry" />
        </mxCell>
        <mxCell id="jLijkt9ATGrM85FAeO1t-9" value="1 x 1 x 5" style="text;html=1;strokeColor=none;fillColor=none;align=center;verticalAlign=middle;whiteSpace=wrap;rounded=0;" parent="QK2pbx6oKxcqNwF5JGfP-1" vertex="1">
          <mxGeometry x="522.5" y="298" width="99" height="30" as="geometry" />
        </mxCell>
        <mxCell id="jLijkt9ATGrM85FAeO1t-3" value="" style="shape=cube;whiteSpace=wrap;html=1;boundedLbl=1;backgroundOutline=1;darkOpacity=0.2;darkOpacity2=0.2;size=10;direction=east;flipH=1;fillColor=#dae8fc;strokeColor=#6c8ebf;" parent="QK2pbx6oKxcqNwF5JGfP-1" vertex="1">
          <mxGeometry x="548.5" y="266" width="30" height="32" as="geometry" />
        </mxCell>
        <mxCell id="aNaGQPfS6R6LslxrtQS8-0" value="" style="shape=cube;whiteSpace=wrap;html=1;boundedLbl=1;backgroundOutline=1;darkOpacity=0.05;darkOpacity2=0.1;size=10;direction=east;flipH=1;fillColor=#d5e8d4;strokeColor=#82b366;" parent="QK2pbx6oKxcqNwF5JGfP-1" vertex="1">
          <mxGeometry x="573.5" y="266" width="30" height="32" as="geometry" />
        </mxCell>
        <mxCell id="jLijkt9ATGrM85FAeO1t-1" value="" style="shape=cube;whiteSpace=wrap;html=1;boundedLbl=1;backgroundOutline=1;darkOpacity=0.2;darkOpacity2=0.2;size=10;direction=east;flipH=1;fillColor=#dae8fc;strokeColor=#6c8ebf;" parent="QK2pbx6oKxcqNwF5JGfP-1" vertex="1">
          <mxGeometry x="319.5" y="186" width="30" height="192" as="geometry" />
        </mxCell>
        <mxCell id="jLijkt9ATGrM85FAeO1t-2" value="" style="shape=cube;whiteSpace=wrap;html=1;boundedLbl=1;backgroundOutline=1;darkOpacity=0.2;darkOpacity2=0.2;size=10;direction=east;flipH=1;fillColor=#dae8fc;strokeColor=#6c8ebf;" parent="QK2pbx6oKxcqNwF5JGfP-1" vertex="1">
          <mxGeometry x="399.5" y="210" width="30" height="144" as="geometry" />
        </mxCell>
        <mxCell id="jLijkt9ATGrM85FAeO1t-5" value="" style="shape=cube;whiteSpace=wrap;html=1;boundedLbl=1;backgroundOutline=1;darkOpacity=0.2;darkOpacity2=0.2;size=10;direction=east;flipH=1;fillColor=#dae8fc;strokeColor=#6c8ebf;" parent="QK2pbx6oKxcqNwF5JGfP-1" vertex="1">
          <mxGeometry x="475" y="228" width="30" height="108" as="geometry" />
        </mxCell>
        <mxCell id="mJjdZjzamuqWmYr8lcxy-0" value="" style="shape=cube;whiteSpace=wrap;html=1;boundedLbl=1;backgroundOutline=1;darkOpacity=0.05;darkOpacity2=0.1;size=7;direction=east;flipH=1;fillColor=#d5e8d4;strokeColor=#82b366;" parent="QK2pbx6oKxcqNwF5JGfP-1" vertex="1">
          <mxGeometry x="441.5" y="177.06" width="30" height="20" as="geometry" />
        </mxCell>
        <mxCell id="mJjdZjzamuqWmYr8lcxy-1" value="Softmax" style="text;html=1;strokeColor=none;fillColor=none;align=left;verticalAlign=middle;whiteSpace=wrap;rounded=0;fontStyle=1" parent="QK2pbx6oKxcqNwF5JGfP-1" vertex="1">
          <mxGeometry x="481.5" y="173.18" width="138" height="23.88" as="geometry" />
        </mxCell>
        <mxCell id="bj6qKKt8IS7I7LtQc7PS-5" value="" style="html=1;shadow=0;dashed=0;align=center;verticalAlign=middle;shape=mxgraph.arrows2.arrow;dy=0.63;dx=12.28;notch=0;fontSize=16;fillColor=#b0e3e6;strokeColor=#0e8088;" parent="QK2pbx6oKxcqNwF5JGfP-1" vertex="1">
          <mxGeometry x="277.5" y="272" width="35" height="20" as="geometry" />
        </mxCell>
        <mxCell id="bj6qKKt8IS7I7LtQc7PS-6" value="" style="html=1;shadow=0;dashed=0;align=center;verticalAlign=middle;shape=mxgraph.arrows2.arrow;dy=0.63;dx=12.28;notch=0;fontSize=16;fillColor=#b0e3e6;strokeColor=#0e8088;" parent="QK2pbx6oKxcqNwF5JGfP-1" vertex="1">
          <mxGeometry x="359.5" y="272" width="35" height="20" as="geometry" />
        </mxCell>
        <mxCell id="bj6qKKt8IS7I7LtQc7PS-7" value="" style="html=1;shadow=0;dashed=0;align=center;verticalAlign=middle;shape=mxgraph.arrows2.arrow;dy=0.63;dx=12.28;notch=0;fontSize=16;fillColor=#b0e3e6;strokeColor=#0e8088;" parent="QK2pbx6oKxcqNwF5JGfP-1" vertex="1">
          <mxGeometry x="436.5" y="272" width="35" height="20" as="geometry" />
        </mxCell>
        <mxCell id="bj6qKKt8IS7I7LtQc7PS-8" value="" style="html=1;shadow=0;dashed=0;align=center;verticalAlign=middle;shape=mxgraph.arrows2.arrow;dy=0.63;dx=12.28;notch=0;fontSize=16;fillColor=#b0e3e6;strokeColor=#0e8088;" parent="QK2pbx6oKxcqNwF5JGfP-1" vertex="1">
          <mxGeometry x="509.5" y="272" width="35" height="20" as="geometry" />
        </mxCell>
      </root>
    </mxGraphModel>
  </diagram>
</mxfile>
